# xmcd
#
# Track frame offsets:
#	150
#	16763
#	38327
#	61168
#	83657
#	101512
#	120155
#	136986
#	160441
#	178021
#	197630
#
# Disc length: 2853 seconds
#
# Revision: 0
# Processed by: cddbd v1.5.2PL0 Copyright (c) Steve Scherf et al.
# Submitted via: dBpowerAMP V4.0
#
DISCID=7a0b230b
DTITLE=Diane Blue - Here I Am
DYEAR=1900
DGENRE=Blues
TTITLE0=Muddy Water
TTITLE1=Since I Fell For You
TTITLE2=Restless
TTITLE3=Piece of My Heart
TTITLE4=Good Times
TTITLE5=There I Was...Here I Am
TTITLE6=Walking the Dog
TTITLE7=God Bless the Child
TTITLE8=Love Makes A Woman
TTITLE9=My Daily Prayer
TTITLE10=Gypsy Child
EXTD=Diane Blue
EXTT0=
EXTT1=
EXTT2=
EXTT3=
EXTT4=
EXTT5=
EXTT6=
EXTT7=
EXTT8=
EXTT9=
EXTT10=
PLAYORDER=
